  0
SECTION
  2
BLOCKS
  0
ENDSEC
  0
SECTION
  2
ENTITIES
  0
LINE
  8
0
 10
150
 20
75
 11
111
 21
75
  0
LINE
  8
0
 10
111
 20
75
 11
111
 21
52.5
  0
LINE
  8
0
 10
111
 20
52.5
 11
109
 21
52.5
  0
LINE
  8
0
 10
109
 20
52.5
 11
109
 21
75
  0
LINE
  8
0
 10
109
 20
75
 11
103
 21
75
  0
LINE
  8
0
 10
103
 20
75
 11
103
 21
52.5
  0
LINE
  8
0
 10
103
 20
52.5
 11
101
 21
52.5
  0
LINE
  8
0
 10
101
 20
52.5
 11
101
 21
75
  0
LINE
  8
0
 10
101
 20
75
 11
95
 21
75
  0
LINE
  8
0
 10
95
 20
75
 11
95
 21
52.5
  0
LINE
  8
0
 10
95
 20
52.5
 11
93
 21
52.5
  0
LINE
  8
0
 10
93
 20
52.5
 11
93
 21
75
  0
LINE
  8
0
 10
93
 20
75
 11
87
 21
75
  0
LINE
  8
0
 10
87
 20
75
 11
87
 21
52.5
  0
LINE
  8
0
 10
87
 20
52.5
 11
85
 21
52.5
  0
LINE
  8
0
 10
85
 20
52.5
 11
85
 21
75
  0
LINE
  8
0
 10
85
 20
75
 11
79
 21
75
  0
LINE
  8
0
 10
79
 20
75
 11
79
 21
52.5
  0
LINE
  8
0
 10
79
 20
52.5
 11
77
 21
52.5
  0
LINE
  8
0
 10
77
 20
52.5
 11
77
 21
75
  0
LINE
  8
0
 10
77
 20
75
 11
71
 21
75
  0
LINE
  8
0
 10
71
 20
75
 11
71
 21
52.5
  0
LINE
  8
0
 10
71
 20
52.5
 11
69
 21
52.5
  0
LINE
  8
0
 10
69
 20
52.5
 11
69
 21
75
  0
LINE
  8
0
 10
69
 20
75
 11
63
 21
75
  0
LINE
  8
0
 10
63
 20
75
 11
63
 21
52.5
  0
LINE
  8
0
 10
63
 20
52.5
 11
61
 21
52.5
  0
LINE
  8
0
 10
61
 20
52.5
 11
61
 21
75
  0
LINE
  8
0
 10
61
 20
75
 11
55
 21
75
  0
LINE
  8
0
 10
55
 20
75
 11
55
 21
52.5
  0
LINE
  8
0
 10
55
 20
52.5
 11
53
 21
52.5
  0
LINE
  8
0
 10
53
 20
52.5
 11
53
 21
75
  0
LINE
  8
0
 10
53
 20
75
 11
47
 21
75
  0
LINE
  8
0
 10
47
 20
75
 11
47
 21
52.5
  0
LINE
  8
0
 10
47
 20
52.5
 11
45
 21
52.5
  0
LINE
  8
0
 10
45
 20
52.5
 11
45
 21
75
  0
LINE
  8
0
 10
45
 20
75
 11
39
 21
75
  0
LINE
  8
0
 10
39
 20
75
 11
39
 21
52.5
  0
LINE
  8
0
 10
39
 20
52.5
 11
37
 21
52.5
  0
LINE
  8
0
 10
37
 20
52.5
 11
37
 21
75
  0
LINE
  8
0
 10
37
 20
75
 11
0
 21
75
  0
LINE
  8
0
 10
0
 20
75
 11
0
 21
0
  0
LINE
  8
0
 10
0
 20
0
 11
37
 21
0
  0
LINE
  8
0
 10
37
 20
0
 11
37
 21
27.5
  0
LINE
  8
0
 10
37
 20
27.5
 11
39
 21
27.5
  0
LINE
  8
0
 10
39
 20
27.5
 11
39
 21
0
  0
LINE
  8
0
 10
39
 20
0
 11
45
 21
0
  0
LINE
  8
0
 10
45
 20
0
 11
45
 21
27.5
  0
LINE
  8
0
 10
45
 20
27.5
 11
47
 21
27.5
  0
LINE
  8
0
 10
47
 20
27.5
 11
47
 21
0
  0
LINE
  8
0
 10
47
 20
0
 11
53
 21
0
  0
LINE
  8
0
 10
53
 20
0
 11
53
 21
27.5
  0
LINE
  8
0
 10
53
 20
27.5
 11
55
 21
27.5
  0
LINE
  8
0
 10
55
 20
27.5
 11
55
 21
0
  0
LINE
  8
0
 10
55
 20
0
 11
61
 21
0
  0
LINE
  8
0
 10
61
 20
0
 11
61
 21
27.5
  0
LINE
  8
0
 10
61
 20
27.5
 11
63
 21
27.5
  0
LINE
  8
0
 10
63
 20
27.5
 11
63
 21
0
  0
LINE
  8
0
 10
63
 20
0
 11
69
 21
0
  0
LINE
  8
0
 10
69
 20
0
 11
69
 21
27.5
  0
LINE
  8
0
 10
69
 20
27.5
 11
71
 21
27.5
  0
LINE
  8
0
 10
71
 20
27.5
 11
71
 21
0
  0
LINE
  8
0
 10
71
 20
0
 11
77
 21
0
  0
LINE
  8
0
 10
77
 20
0
 11
77
 21
27.5
  0
LINE
  8
0
 10
77
 20
27.5
 11
79
 21
27.5
  0
LINE
  8
0
 10
79
 20
27.5
 11
79
 21
0
  0
LINE
  8
0
 10
79
 20
0
 11
85
 21
0
  0
LINE
  8
0
 10
85
 20
0
 11
85
 21
27.5
  0
LINE
  8
0
 10
85
 20
27.5
 11
87
 21
27.5
  0
LINE
  8
0
 10
87
 20
27.5
 11
87
 21
0
  0
LINE
  8
0
 10
87
 20
0
 11
93
 21
0
  0
LINE
  8
0
 10
93
 20
0
 11
93
 21
27.5
  0
LINE
  8
0
 10
93
 20
27.5
 11
95
 21
27.5
  0
LINE
  8
0
 10
95
 20
27.5
 11
95
 21
0
  0
LINE
  8
0
 10
95
 20
0
 11
101
 21
0
  0
LINE
  8
0
 10
101
 20
0
 11
101
 21
27.5
  0
LINE
  8
0
 10
101
 20
27.5
 11
103
 21
27.5
  0
LINE
  8
0
 10
103
 20
27.5
 11
103
 21
0
  0
LINE
  8
0
 10
103
 20
0
 11
109
 21
0
  0
LINE
  8
0
 10
109
 20
0
 11
109
 21
27.5
  0
LINE
  8
0
 10
109
 20
27.5
 11
111
 21
27.5
  0
LINE
  8
0
 10
111
 20
27.5
 11
111
 21
0
  0
LINE
  8
0
 10
111
 20
0
 11
150
 21
0
  0
LINE
  8
0
 10
150
 20
0
 11
150
 21
75
  0
LINE
  8
0
 10
65
 20
5
 11
65
 21
70
  0
LINE
  8
0
 10
65
 20
70
 11
67
 21
70
  0
LINE
  8
0
 10
67
 20
70
 11
67
 21
5
  0
LINE
  8
0
 10
67
 20
5
 11
65
 21
5
  0
LINE
  8
0
 10
57
 20
5
 11
57
 21
70
  0
LINE
  8
0
 10
57
 20
70
 11
59
 21
70
  0
LINE
  8
0
 10
59
 20
70
 11
59
 21
5
  0
LINE
  8
0
 10
59
 20
5
 11
57
 21
5
  0
LINE
  8
0
 10
73
 20
5
 11
73
 21
70
  0
LINE
  8
0
 10
73
 20
70
 11
75
 21
70
  0
LINE
  8
0
 10
75
 20
70
 11
75
 21
5
  0
LINE
  8
0
 10
75
 20
5
 11
73
 21
5
  0
LINE
  8
0
 10
105
 20
5
 11
105
 21
70
  0
LINE
  8
0
 10
105
 20
70
 11
107
 21
70
  0
LINE
  8
0
 10
107
 20
70
 11
107
 21
5
  0
LINE
  8
0
 10
107
 20
5
 11
105
 21
5
  0
LINE
  8
0
 10
41
 20
5
 11
41
 21
70
  0
LINE
  8
0
 10
41
 20
70
 11
43
 21
70
  0
LINE
  8
0
 10
43
 20
70
 11
43
 21
5
  0
LINE
  8
0
 10
43
 20
5
 11
41
 21
5
  0
LINE
  8
0
 10
81
 20
5
 11
81
 21
70
  0
LINE
  8
0
 10
81
 20
70
 11
83
 21
70
  0
LINE
  8
0
 10
83
 20
70
 11
83
 21
5
  0
LINE
  8
0
 10
83
 20
5
 11
81
 21
5
  0
LINE
  8
0
 10
97
 20
5
 11
97
 21
70
  0
LINE
  8
0
 10
97
 20
70
 11
99
 21
70
  0
LINE
  8
0
 10
99
 20
70
 11
99
 21
5
  0
LINE
  8
0
 10
99
 20
5
 11
97
 21
5
  0
LINE
  8
0
 10
49
 20
5
 11
49
 21
70
  0
LINE
  8
0
 10
49
 20
70
 11
51
 21
70
  0
LINE
  8
0
 10
51
 20
70
 11
51
 21
5
  0
LINE
  8
0
 10
51
 20
5
 11
49
 21
5
  0
LINE
  8
0
 10
89
 20
5
 11
89
 21
70
  0
LINE
  8
0
 10
89
 20
70
 11
91
 21
70
  0
LINE
  8
0
 10
91
 20
70
 11
91
 21
5
  0
LINE
  8
0
 10
91
 20
5
 11
89
 21
5
  0
LINE
  8
0
 10
37
 20
47.5
 11
39
 21
47.5
  0
LINE
  8
0
 10
39
 20
47.5
 11
39
 21
32.5
  0
LINE
  8
0
 10
39
 20
32.5
 11
37
 21
32.5
  0
LINE
  8
0
 10
37
 20
32.5
 11
37
 21
47.5
  0
LINE
  8
0
 10
61
 20
32.5
 11
61
 21
47.5
  0
LINE
  8
0
 10
61
 20
47.5
 11
63
 21
47.5
  0
LINE
  8
0
 10
63
 20
47.5
 11
63
 21
32.5
  0
LINE
  8
0
 10
63
 20
32.5
 11
61
 21
32.5
  0
LINE
  8
0
 10
69
 20
32.5
 11
69
 21
47.5
  0
LINE
  8
0
 10
69
 20
47.5
 11
71
 21
47.5
  0
LINE
  8
0
 10
71
 20
47.5
 11
71
 21
32.5
  0
LINE
  8
0
 10
71
 20
32.5
 11
69
 21
32.5
  0
LINE
  8
0
 10
77
 20
32.5
 11
77
 21
47.5
  0
LINE
  8
0
 10
77
 20
47.5
 11
79
 21
47.5
  0
LINE
  8
0
 10
79
 20
47.5
 11
79
 21
32.5
  0
LINE
  8
0
 10
79
 20
32.5
 11
77
 21
32.5
  0
LINE
  8
0
 10
53
 20
32.5
 11
53
 21
47.5
  0
LINE
  8
0
 10
53
 20
47.5
 11
55
 21
47.5
  0
LINE
  8
0
 10
55
 20
47.5
 11
55
 21
32.5
  0
LINE
  8
0
 10
55
 20
32.5
 11
53
 21
32.5
  0
LINE
  8
0
 10
85
 20
32.5
 11
85
 21
47.5
  0
LINE
  8
0
 10
85
 20
47.5
 11
87
 21
47.5
  0
LINE
  8
0
 10
87
 20
47.5
 11
87
 21
32.5
  0
LINE
  8
0
 10
87
 20
32.5
 11
85
 21
32.5
  0
LINE
  8
0
 10
93
 20
32.5
 11
93
 21
47.5
  0
LINE
  8
0
 10
93
 20
47.5
 11
95
 21
47.5
  0
LINE
  8
0
 10
95
 20
47.5
 11
95
 21
32.5
  0
LINE
  8
0
 10
95
 20
32.5
 11
93
 21
32.5
  0
LINE
  8
0
 10
45
 20
32.5
 11
45
 21
47.5
  0
LINE
  8
0
 10
45
 20
47.5
 11
47
 21
47.5
  0
LINE
  8
0
 10
47
 20
47.5
 11
47
 21
32.5
  0
LINE
  8
0
 10
47
 20
32.5
 11
45
 21
32.5
  0
LINE
  8
0
 10
101
 20
32.5
 11
101
 21
47.5
  0
LINE
  8
0
 10
101
 20
47.5
 11
103
 21
47.5
  0
LINE
  8
0
 10
103
 20
47.5
 11
103
 21
32.5
  0
LINE
  8
0
 10
103
 20
32.5
 11
101
 21
32.5
  0
LINE
  8
0
 10
109
 20
32.5
 11
109
 21
47.5
  0
LINE
  8
0
 10
109
 20
47.5
 11
111
 21
47.5
  0
LINE
  8
0
 10
111
 20
47.5
 11
111
 21
32.5
  0
LINE
  8
0
 10
111
 20
32.5
 11
109
 21
32.5
  0
ENDSEC
  0
SECTION
  2
OBJECTS
  0
DICTIONARY
  0
ENDSEC
  0
EOF
